<svg version="1.1" xmlns="http://www.w3.org/2000/svg" viewBox="0 0 74.5 69.19397505238237" width="74.5" height="69.19397505238237">
  <!-- svg-source:excalidraw -->
  
  <g transform="translate(10 10) rotate(0 27.25 24.596987526191185)"><path d="M7.29200621413377 -0.7235005810856819 L47.82435415519091 -0.5451117470860481 L53.16608234490656 2.1945108071396424 L55.04230567961931 7.416557161680728 L54.775288458168504 42.264043046508164 L52.662833414929146 46.569838790697695 L47.32828171981188 49.93633512422026 L6.64212394522813 49.203472127165206 L1.0780709073374348 47.42110331515753 L0.3972381785511971 42.4989956393579 L0.6042169287800789 7.134465401045353 L1.2686848923990803 1.4443493023941594 L8.075406368247538 0.3853386446833611" stroke="none" stroke-width="0" fill="#5f3c25"></path><path d="M7.379096257857353 0 M7.379096257857353 0 C22.91761321759456 -0.8075474831088274, 38.34567265714487 -0.6681743237002581, 47.120903742142644 0 C52.07039945169559 0.07042047530412675, 53.76676340550184 1.9960457320583762, 54.5 7.379096257857353 M54.5 7.379096257857353 C54.561571012404784 17.31745642829397, 54.35944179144226 26.629385510581034, 54.5 41.814878794525 C53.9903880789876 47.25723711012653, 52.68157829388252 49.0782867328781, 47.120903742142644 49.193975052382356 M47.120903742142644 49.193975052382356 C36.66792839361595 48.93608185231441, 26.38306002571108 49.810390009281576, 7.379096257857353 49.193975052382356 C2.212506565011829 49.779887060965905, -0.6414336636662483 47.28989746629051, 0 41.814878794525 M0 41.814878794525 C0.26911209885892406 32.99433524128818, -0.8751817339200068 25.023718679812085, 0 7.379096257857353 C-0.3450313374400139 1.8520091857088508, 3.0766144271267355 -0.06347584277391434, 7.379096257857353 0" stroke="#5f3c25" stroke-width="3.15" fill="none"></path></g><g transform="translate(15.5 14.5) rotate(0 5.75 6)"><path d="M11.500000000000004 5.9999999999999964 C11.500000000000004 6.347296355333857, 11.470439151567037 6.699868922675909, 11.4126445798202 7.041889066001578 C11.354850008073361 7.383909209327246, 11.267065654195589 7.725769037620937, 11.153232569518977 8.052120859954007 C11.039399484842365 8.378472682287077, 10.896058908691336 8.699232533639124, 10.729646071760527 8.999999999999995 C10.563233234829719 9.300767466360865, 10.368691767277946 9.590681215000252, 10.154755547934126 9.85672565811923 C9.940819328590306 10.122770101238206, 9.700988013686624 10.373028864615963, 9.446028755697604 10.596266658713862 C9.191069497708584 10.819504452811762, 8.913235488595838 11.022504245039695, 8.625000000000004 11.196152422706625 C8.33676451140417 11.369800600373555, 8.029369653858456 11.519373375487673, 7.716615824122599 11.638155724715443 C7.40386199438674 11.756938073943212, 7.076246325605285 11.848539138859149, 6.748477021584852 11.90884651807324 C6.42070771756442 11.969153897287331, 6.082825673861619 11.999999999999993, 5.750000000000002 11.999999999999993 C5.417174326138385 11.999999999999993, 5.079292282435585 11.969153897287331, 4.751522978415152 11.90884651807324 C4.423753674394719 11.848539138859149, 4.096138005613264 11.756938073943212, 3.783384175877406 11.638155724715443 C3.4706303461415473 11.519373375487673, 3.1632354885958365 11.369800600373555, 2.875000000000002 11.196152422706625 C2.586764511404168 11.022504245039695, 2.308930502291422 10.819504452811763, 2.053971244302401 10.596266658713864 C1.7990119863133807 10.373028864615964, 1.5591806714096992 10.12277010123821, 1.345244452065879 9.856725658119233 C1.131308232722059 9.590681215000256, 0.9367667651702883 9.30076746636087, 0.77035392823948 9 C0.6039410913086717 8.69923253363913, 0.4606005151576418 8.378472682287082, 0.3467674304810293 8.052120859954014 C0.23293434580441685 7.725769037620945, 0.14514999192664346 7.383909209327254, 0.08735542017980524 7.041889066001586 C0.029560848432967024 6.699868922675917, 5.921189464667501e-16 6.3472963553338655, 0 6.000000000000005 C-5.921189464667501e-16 5.652703644666145, 0.029560848432964505 5.300131077324093, 0.08735542017980169 4.958110933998425 C0.14514999192663888 4.616090790672756, 0.23293434580441136 4.274230962379065, 0.3467674304810231 3.9478791400459956 C0.46060051515763484 3.621527317712926, 0.6039410913086645 3.3007674663608793, 0.770353928239472 3.000000000000009 C0.9367667651702796 2.6992325336391385, 1.1313082327220487 2.4093187849997517, 1.3452444520658684 2.1432743418807734 C1.559180671409688 1.877229898761795, 1.7990119863133702 1.6269711353840386, 2.0539712443023905 1.4037333412861388 C2.308930502291411 1.180495547188239, 2.5867645114041564 0.9774957549603048, 2.8749999999999902 0.8038475772933742 C3.163235488595824 0.6301993996264436, 3.470630346141535 0.4806266245123247, 3.7833841758773925 0.36184427528455476 C4.09613800561325 0.24306192605678484, 4.423753674394705 0.15146086114084722, 4.751522978415137 0.09115348192675476 C5.079292282435569 0.030846102712662304, 5.41717432613837 1.0362081563168128e-15, 5.749999999999986 0 C6.082825673861602 -1.0362081563168128e-15, 6.420707717564403 0.030846102712658162, 6.748477021584835 0.09115348192674855 C7.076246325605267 0.15146086114083893, 7.403861994386721 0.24306192605677418, 7.71661582412258 0.3618442752845423 C8.029369653858438 0.4806266245123105, 8.336764511404152 0.6301993996264281, 8.624999999999986 0.8038475772933573 C8.91323548859582 0.9774957549602865, 9.191069497708567 1.1804955471882195, 9.446028755697588 1.4037333412861175 C9.70098801368661 1.6269711353840155, 9.94081932859029 1.8772298987617688, 10.154755547934112 2.1432743418807454 C10.368691767277934 2.409318784999722, 10.563233234829703 2.6992325336391074, 10.729646071760513 2.999999999999977 C10.896058908691323 3.3007674663608464, 11.039399484842354 3.6215273177128924, 11.153232569518968 3.947879140045961 C11.267065654195582 4.274230962379029, 11.354850008073356 4.616090790672721, 11.412644579820196 4.958110933998388 C11.470439151567035 5.300131077324056, 11.48544076330337 5.8263518223330335, 11.500000000000004 5.999999999999968 C11.514559236696638 6.1736481776669025, 11.514559236696638 5.826351822333061, 11.500000000000004 5.9999999999999964" stroke="none" stroke-width="0" fill="#5f3c25"></path><path d="M11.500000000000004 5.9999999999999964 C11.500000000000004 6.347296355333857, 11.470439151567037 6.699868922675909, 11.4126445798202 7.041889066001578 C11.354850008073361 7.383909209327246, 11.267065654195589 7.725769037620937, 11.153232569518977 8.052120859954007 C11.039399484842365 8.378472682287077, 10.896058908691336 8.699232533639124, 10.729646071760527 8.999999999999995 C10.563233234829719 9.300767466360865, 10.368691767277946 9.590681215000252, 10.154755547934126 9.85672565811923 C9.940819328590306 10.122770101238206, 9.700988013686624 10.373028864615963, 9.446028755697604 10.596266658713862 C9.191069497708584 10.819504452811762, 8.913235488595838 11.022504245039695, 8.625000000000004 11.196152422706625 C8.33676451140417 11.369800600373555, 8.029369653858456 11.519373375487673, 7.716615824122599 11.638155724715443 C7.40386199438674 11.756938073943212, 7.076246325605285 11.848539138859149, 6.748477021584852 11.90884651807324 C6.42070771756442 11.969153897287331, 6.082825673861619 11.999999999999993, 5.750000000000002 11.999999999999993 C5.417174326138385 11.999999999999993, 5.079292282435585 11.969153897287331, 4.751522978415152 11.90884651807324 C4.423753674394719 11.848539138859149, 4.096138005613264 11.756938073943212, 3.783384175877406 11.638155724715443 C3.4706303461415473 11.519373375487673, 3.1632354885958365 11.369800600373555, 2.875000000000002 11.196152422706625 C2.586764511404168 11.022504245039695, 2.308930502291422 10.819504452811763, 2.053971244302401 10.596266658713864 C1.7990119863133807 10.373028864615964, 1.5591806714096992 10.12277010123821, 1.345244452065879 9.856725658119233 C1.131308232722059 9.590681215000256, 0.9367667651702883 9.30076746636087, 0.77035392823948 9 C0.6039410913086717 8.69923253363913, 0.4606005151576418 8.378472682287082, 0.3467674304810293 8.052120859954014 C0.23293434580441685 7.725769037620945, 0.14514999192664346 7.383909209327254, 0.08735542017980524 7.041889066001586 C0.029560848432967024 6.699868922675917, 5.921189464667501e-16 6.3472963553338655, 0 6.000000000000005 C-5.921189464667501e-16 5.652703644666145, 0.029560848432964505 5.300131077324093, 0.08735542017980169 4.958110933998425 C0.14514999192663888 4.616090790672756, 0.23293434580441136 4.274230962379065, 0.3467674304810231 3.9478791400459956 C0.46060051515763484 3.621527317712926, 0.6039410913086645 3.3007674663608793, 0.770353928239472 3.000000000000009 C0.9367667651702796 2.6992325336391385, 1.1313082327220487 2.4093187849997517, 1.3452444520658684 2.1432743418807734 C1.559180671409688 1.877229898761795, 1.7990119863133702 1.6269711353840386, 2.0539712443023905 1.4037333412861388 C2.308930502291411 1.180495547188239, 2.5867645114041564 0.9774957549603048, 2.8749999999999902 0.8038475772933742 C3.163235488595824 0.6301993996264436, 3.470630346141535 0.4806266245123247, 3.7833841758773925 0.36184427528455476 C4.09613800561325 0.24306192605678484, 4.423753674394705 0.15146086114084722, 4.751522978415137 0.09115348192675476 C5.079292282435569 0.030846102712662304, 5.41717432613837 1.0362081563168128e-15, 5.749999999999986 0 C6.082825673861602 -1.0362081563168128e-15, 6.420707717564403 0.030846102712658162, 6.748477021584835 0.09115348192674855 C7.076246325605267 0.15146086114083893, 7.403861994386721 0.24306192605677418, 7.71661582412258 0.3618442752845423 C8.029369653858438 0.4806266245123105, 8.336764511404152 0.6301993996264281, 8.624999999999986 0.8038475772933573 C8.91323548859582 0.9774957549602865, 9.191069497708567 1.1804955471882195, 9.446028755697588 1.4037333412861175 C9.70098801368661 1.6269711353840155, 9.94081932859029 1.8772298987617688, 10.154755547934112 2.1432743418807454 C10.368691767277934 2.409318784999722, 10.563233234829703 2.6992325336391074, 10.729646071760513 2.999999999999977 C10.896058908691323 3.3007674663608464, 11.039399484842354 3.6215273177128924, 11.153232569518968 3.947879140045961 C11.267065654195582 4.274230962379029, 11.354850008073356 4.616090790672721, 11.412644579820196 4.958110933998388 C11.470439151567035 5.300131077324056, 11.48544076330337 5.8263518223330335, 11.500000000000004 5.999999999999968 C11.514559236696638 6.1736481776669025, 11.514559236696638 5.826351822333061, 11.500000000000004 5.9999999999999964" stroke="#e2e2e2" stroke-width="2.975" fill="none"></path></g><g><g transform="translate(21.25 28.5) rotate(0 -0.2875887476055823 11.981281372100113)"><path d="M-0.3805063143074513 0.35570206502079965 C-0.47316086009144787 4.324122525721788, -0.18567787840962416 19.70313128903508, -0.1776193809807301 23.60686067917943" stroke="#e2e2e2" stroke-width="3.15" fill="none"></path></g></g><g><g transform="translate(29 20.5) rotate(0 14.402793644934889 0.13603465220333533)"><path d="M-0.2913878807723522 0.33560723778605467 C4.514321266045173 0.3284999332129956, 24.188340883443754 -0.06788195326924325, 29.09697517064214 -0.06353793337941172" stroke="#e2e2e2" stroke-width="3.15" fill="none"></path></g></g><g transform="translate(31.5 38) rotate(0 10.25 6)"><path d="M2.0264845415949826 -0.1646926686167717 L20.570193199813378 0.2959481909871102 L20.61512713879348 10.802116699516777 L0.17520237416028983 10.793803091347222 L0.019022421538829805 1.6313101008534436 L1.369878296554089 0.7952529624104501" stroke="none" stroke-width="0" fill="#5f3c25"></path><path d="M1.8000000000000005 0 M1.8000000000000005 0 C7.432635616485034 -0.20114917887225758, 13.406310820311317 0.014882964958995618, 18.70000000000001 0 C19.4886251166463 0.1230056330561638, 20.504913254082215 0.9676878020167352, 20.50000000000001 1.8000000000000005 M20.50000000000001 1.8000000000000005 C20.717636128106726 4.311670361861588, 20.48063496939243 6.5275237714648275, 20.50000000000001 10.200000000000003 C20.39099350422622 11.947442503273491, 19.89707551449538 11.63216020613909, 18.70000000000001 12.000000000000004 M18.70000000000001 12.000000000000004 C15.588353401672101 11.564684652454408, 12.512864403828985 12.400233466512713, 1.8000000000000005 12.000000000000004 C1.2013075068593027 12.114663605391982, 0.5268958762288094 11.59084144085646, 0 10.200000000000003 M0 10.200000000000003 C-0.24167855646908287 8.591063783839347, 0.2419244413107634 6.86281845366955, 0 1.8000000000000005 C-0.6291084721684457 0.9049399569630624, 0.3566625639796258 -0.5413741394877434, 1.8000000000000005 0" stroke="#e2e2e2" stroke-width="3.15" fill="none"></path></g><g><g transform="translate(36.284140969160035 36) rotate(0 5.58991189478877 -5.326281332522626)"><path d="M0.18470723083615304 -0.12526030805706978 C0.4705751770034707 -1.6795104781289896, 0.27351184452338817 -7.965817741503319, 1.83552880802469 -9.496185516148806 C3.397545771525992 -11.026553290794293, 8.03021105339117 -10.875349089731772, 9.556809011843965 -9.307466955929995 C11.08340697029676 -7.739584822128216, 10.72318794232968 -1.667631851941347, 10.99511655874146 -0.0888927133381367" stroke="#e2e2e2" stroke-width="2.975" fill="none"></path></g></g></svg>